# File produced by Open Asset Import Library (http://www.assimp.sf.net)
# (assimp v3.2.202087883)

mtllib model_normalized.mtl

# 92 vertex positions
v -0.400951 -0.139583 -0.238557
v -0.462171 -0.139583 -0.299778
v -0.400951 -0.139583 -0.299778
v -0.462171 -0.139583 -0.238557
v -0.400951 -0.022512 -0.299778
v -0.462171 -0.022512 -0.238557
v -0.462171 0.017056 -0.299778
v -0.400951 -0.022512 -0.238557
v 0.358167 0.017056 -0.299778
v 0.296947 -0.022512 -0.238557
v 0.358167 -0.022512 0.177596
v -0.462171 0.017056 0.238817
v -0.461866 0.021705 -0.299473
v 0.296947 -0.022512 -0.299778
v -0.400951 -0.022512 0.177596
v -0.462171 -0.022512 0.177596
v -0.461866 0.021705 0.238512
v 0.357863 0.021705 -0.299473
v 0.296947 -0.139583 -0.299778
v 0.358167 -0.022512 -0.238557
v 0.296947 -0.022512 0.177596
v -0.462171 -0.139583 0.177596
v 0.358167 0.017056 0.238817
v -0.460957 0.026274 -0.298565
v 0.358167 0.017056 0.203203
v -0.460957 0.026274 0.237604
v 0.358167 -0.139583 -0.299778
v 0.296947 -0.139583 -0.238557
v 0.358167 -0.139583 -0.238557
v 0.296947 -0.139583 0.177596
v -0.400951 -0.022512 0.238817
v -0.462171 -0.139583 0.238817
v 0.357863 0.021705 0.238512
v 0.356955 0.026274 -0.298565
v 0.358167 -0.139583 0.177596
v 0.296947 -0.022512 0.238817
v -0.400951 -0.139583 0.238817
v -0.400951 -0.139583 0.177596
v -0.459460 0.030686 -0.297066
v 0.357863 0.021705 0.203203
v -0.459460 0.030686 0.236106
v 0.356955 0.026274 0.237604
v 0.358167 -0.139583 0.238817
v 0.296947 -0.139583 0.238817
v 0.355456 0.030686 -0.297066
v -0.457399 0.034864 -0.295006
v 0.356955 0.026274 0.203203
v -0.457399 0.034864 0.234045
v 0.355456 0.030686 0.236106
v 0.353396 0.034864 -0.295006
v -0.454811 0.038737 -0.292418
v 0.355456 0.030686 0.203203
v -0.454811 0.038737 0.231458
v 0.353396 0.034864 0.234045
v 0.350808 0.038737 -0.292418
v -0.451739 0.042240 -0.289347
v 0.353396 0.034864 0.203203
v -0.451739 0.042240 0.228386
v 0.350808 0.038737 0.231458
v 0.347737 0.042240 -0.289347
v -0.448237 0.045312 -0.285844
v 0.350808 0.038737 0.203203
v 0.347737 0.042240 0.228386
v 0.344234 0.045312 -0.285844
v -0.448237 0.045312 0.224883
v 0.344234 0.045312 0.224883
v -0.444363 0.047899 -0.281970
v 0.347737 0.042240 0.203203
v 0.340360 0.047899 -0.281970
v 0.344234 0.045312 0.203203
v 0.340360 0.047899 0.221010
v -0.444363 0.047899 0.221010
v -0.440185 0.049960 -0.277793
v 0.336183 0.049960 -0.277793
v 0.340360 0.047899 0.203203
v 0.336183 0.049960 0.216832
v -0.440185 0.049960 0.216832
v -0.435774 0.051458 -0.273381
v 0.331770 0.051458 -0.273381
v 0.336183 0.049960 0.203203
v 0.331770 0.051458 0.212419
v -0.435774 0.051458 0.212419
v -0.431204 0.052366 -0.268811
v 0.327201 0.052366 -0.268811
v 0.331770 0.051458 0.203203
v 0.327201 0.052366 0.207851
v -0.431204 0.052366 0.207851
v -0.426556 0.052671 -0.264163
v 0.322553 0.052671 -0.264163
v 0.327201 0.052366 0.203203
v 0.322553 0.052671 0.203203
v -0.426556 0.052671 0.203203

# 276 UV coordinates
vt -1.25118 0.577118 0
vt -1.05326 0.379201 0
vt -1.05326 0.577118 0
vt -1.25118 0.379201 0
vt -0.577118 0 0
vt -0.379201 0 0
vt -0.577118 0.378472 0
vt -1.05326 0.378472 0
vt -1.25118 0 0
vt -1.05326 0 0
vt 0.577118 0 0
vt 0.379201 0.378472 0
vt 0.379201 0 0
vt 1.25118 0.378472 0
vt 1.05326 0 0
vt 1.25118 0 0
vt -0.379201 0.50639 0
vt -1.25118 0.378472 0
vt 0.577118 0.378472 0
vt 1.05326 0.50639 0
vt -3.03123 0.50639 0
vt -1.25118 2.83332 0
vt -2.59654 3.03123 0
vt 2.79446 0.50639 0
vt -0.380186 0.589253 0
vt -3.03123 0.574192 0
vt -0.379201 0.574192 0
vt -2.83332 0.378472 0
vt -1.05326 2.83332 0
vt -2.59654 0.577118 0
vt 2.59654 0.378472 0
vt 2.79348 0.545167 0
vt 1.05326 0.530106 0
vt 2.79446 0.530106 0
vt -3.03025 0.589253 0
vt 1.05425 0.545167 0
vt -2.83332 0 0
vt 1.05326 0.378472 0
vt -1.25118 3.03123 0
vt -2.59654 2.83332 0
vt -2.59654 0.379201 0
vt 2.59654 0 0
vt 3.03123 0.322539 0
vt 0.380186 0.3376 0
vt 0.379201 0.322539 0
vt -0.383124 0.732134 0
vt -3.03025 0.717073 0
vt -0.380186 0.717073 0
vt -1.05425 0.322114 0
vt -2.67932 0.307053 0
vt -1.05326 0.307053 0
vt 2.79054 0.600631 0
vt 1.05425 0.58557 0
vt 2.79348 0.58557 0
vt -3.03123 0 0
vt 2.83332 0.378472 0
vt 3.03123 0 0
vt 3.03123 0.378472 0
vt -1.05326 0.50639 0
vt -2.59654 0.378472 0
vt -3.03123 0.378472 0
vt -2.79446 0.577118 0
vt -0.379201 0.378472 0
vt 2.79446 0 0
vt 3.03025 0.3376 0
vt 0.379201 0.50639 0
vt 3.03123 0.50639 0
vt -3.02731 0.732134 0
vt 1.05719 0.600631 0
vt -2.79446 0.307053 0
vt -2.79446 0.50639 0
vt -2.67932 0.50639 0
vt 3.03025 -0.033581 0
vt 0.383124 -0.01852 0
vt 0.380186 -0.033581 0
vt -1.05326 3.03123 0
vt 2.83332 0 0
vt 2.79446 0.378472 0
vt -2.79446 2.83332 0
vt -2.79446 0 0
vt -2.79446 0.378472 0
vt -2.79446 0.379201 0
vt -2.79348 0.322114 0
vt -0.387965 0.862616 0
vt -3.02731 0.847556 0
vt -0.383124 0.847556 0
vt -1.05719 -0.064712 0
vt -2.67932 -0.079773 0
vt -1.05425 -0.079773 0
vt 2.7857 0.645946 0
vt 1.05719 0.630885 0
vt 2.79054 0.630885 0
vt 3.02731 -0.01852 0
vt -2.59654 0 0
vt -2.79446 3.03123 0
vt -2.67932 0.322114 0
vt -3.02247 0.862616 0
vt 1.06203 0.645946 0
vt -2.79348 -0.079773 0
vt 3.02731 -0.389255 0
vt 0.387965 -0.374194 0
vt 0.383124 -0.389255 0
vt -2.79054 -0.064712 0
vt -0.394626 0.978468 0
vt -3.02247 0.963407 0
vt -0.387965 0.963407 0
vt -1.06203 -0.450302 0
vt -2.67932 -0.465363 0
vt -1.05719 -0.465363 0
vt 2.77904 0.680338 0
vt 1.06203 0.665277 0
vt 2.7857 0.665277 0
vt 3.02247 -0.374194 0
vt -2.67932 -0.064712 0
vt -3.01581 0.978468 0
vt 1.06869 0.680338 0
vt -2.79054 -0.465363 0
vt 3.02247 -0.738398 0
vt 0.394626 -0.723337 0
vt 0.387965 -0.738398 0
vt -2.7857 -0.450302 0
vt -0.402994 1.07771 0
vt -3.01581 1.06265 0
vt -0.394626 1.06265 0
vt -1.06869 -0.828059 0
vt -2.67932 -0.843119 0
vt -1.06203 -0.843119 0
vt 2.77067 0.703218 0
vt 1.06869 0.688157 0
vt 2.77904 0.688157 0
vt 3.01581 -0.723337 0
vt -2.67932 -0.450302 0
vt -3.00744 1.07771 0
vt 1.07706 0.703218 0
vt -2.7857 -0.843119 0
vt 3.01581 -1.07503 0
vt 0.402994 -1.05997 0
vt 0.394626 -1.07503 0
vt -2.77904 -0.828059 0
vt -0.412924 1.15864 0
vt -3.00744 1.14357 0
vt -0.402994 1.14357 0
vt -1.07706 -1.19152 0
vt -2.67932 -1.20658 0
vt -1.06869 -1.20658 0
vt 2.76074 0.714195 0
vt 1.07706 0.699134 0
vt 2.77067 0.699134 0
vt 3.00744 -1.05997 0
vt -2.67932 -0.828059 0
vt -2.99751 1.15864 0
vt 1.08699 0.714195 0
vt -2.77904 -1.20658 0
vt 3.00744 -1.39341 0
vt 0.412924 -1.37835 0
vt 0.402994 -1.39341 0
vt -2.77067 -1.19152 0
vt -0.424247 1.21987 0
vt -2.99751 1.20481 0
vt -0.412924 1.20481 0
vt -1.08699 -1.53446 0
vt -2.67932 -1.54952 0
vt -1.07706 -1.54952 0
vt 2.76074 0.698019 0
vt 1.09831 0.71308 0
vt 1.08699 0.698019 0
vt 2.99751 -1.37835 0
vt -2.67932 -1.19152 0
vt -2.98619 1.21987 0
vt -2.77067 -1.54952 0
vt 2.74941 0.71308 0
vt -2.76074 -1.53446 0
vt 2.98619 -1.673 0
vt 0.412924 -1.68807 0
vt 2.99751 -1.68807 0
vt -0.43677 1.26036 0
vt -2.98619 1.2453 0
vt -0.424247 1.2453 0
vt -1.09831 -1.85102 0
vt -2.67932 -1.86608 0
vt -1.08699 -1.86608 0
vt 0.424247 -1.673 0
vt 2.74941 0.684832 0
vt 1.11083 0.699893 0
vt 1.09831 0.684832 0
vt -2.67932 -1.53446 0
vt -2.74941 -1.85102 0
vt -2.76074 -1.86608 0
vt -2.97366 1.26036 0
vt -2.67932 -1.85102 0
vt 2.97366 -1.93891 0
vt 0.424247 -1.95397 0
vt 2.98619 -1.95397 0
vt 2.73689 0.699893 0
vt -0.450277 1.27941 0
vt -2.97366 1.26435 0
vt -0.43677 1.26435 0
vt -1.11083 -2.13578 0
vt -2.67932 -2.15084 0
vt -1.09831 -2.15084 0
vt 0.43677 -1.93891 0
vt -2.73689 -2.13578 0
vt -2.74941 -2.15084 0
vt 2.73689 0.659799 0
vt 1.12434 0.67486 0
vt 1.11083 0.659799 0
vt -2.96016 1.27941 0
vt -2.67932 -2.13578 0
vt 2.96016 -2.17151 0
vt 0.43677 -2.18657 0
vt 2.97366 -2.18657 0
vt 2.72338 0.67486 0
vt -0.464539 1.2767 0
vt -2.96016 1.26164 0
vt -0.450277 1.26164 0
vt -1.12434 -2.38387 0
vt -2.67932 -2.39893 0
vt -1.11083 -2.39893 0
vt 0.450277 -2.17151 0
vt -2.72338 -2.38387 0
vt -2.73689 -2.39893 0
vt 2.72338 0.623348 0
vt 1.1386 0.638408 0
vt 1.12434 0.623348 0
vt -2.9459 1.2767 0
vt -2.67932 -2.38387 0
vt 2.9459 -2.36683 0
vt 0.450277 -2.38189 0
vt 2.96016 -2.38189 0
vt 2.70912 0.638408 0
vt -0.47931 1.25227 0
vt -2.9459 1.23721 0
vt -0.464539 1.23721 0
vt -1.1386 -2.59103 0
vt -2.67932 -2.6061 0
vt -1.12434 -2.6061 0
vt 0.464539 -2.36683 0
vt -2.70912 -2.59103 0
vt -2.72338 -2.6061 0
vt 2.70912 0.576102 0
vt 1.15337 0.591162 0
vt 1.1386 0.576102 0
vt -2.93112 1.25227 0
vt -2.67932 -2.59103 0
vt 2.93112 -2.52152 0
vt 0.464539 -2.53658 0
vt 2.9459 -2.53658 0
vt 2.69435 0.591162 0
vt -0.494339 1.20655 0
vt -2.93112 1.19149 0
vt -0.47931 1.19149 0
vt -1.15337 -2.75374 0
vt -2.67932 -2.7688 0
vt -1.1386 -2.7688 0
vt 0.47931 -2.52152 0
vt -2.69435 -2.75374 0
vt -2.70912 -2.7688 0
vt 2.69435 0.51887 0
vt 1.1684 0.53393 0
vt 1.15337 0.51887 0
vt -2.9161 1.20655 0
vt -2.67932 -2.75374 0
vt 2.9161 -2.63294 0
vt 0.47931 -2.648 0
vt 2.93112 -2.648 0
vt 2.67932 0.53393 0
vt 2.67932 0.494339 0
vt 1.1684 2.9161 0
vt 1.1684 0.494339 0
vt -1.1684 -2.8692 0
vt -2.67932 -2.88426 0
vt -1.15337 -2.88426 0
vt 0.494339 -2.63294 0
vt -2.67932 -2.8692 0
vt -2.69435 -2.88426 0
vt 2.67932 2.9161 0

# 110 vertex normals
vn 0 -0.0254 0
vn 0 0 -0.0254
vn 0.0254 0 0
vn 0 0 0.0254
vn -0.0254 0 0
vn 0 0.00331536 -0.0251827
vn 0 0.00166124 -0.0253456
vn -0.0251827 0.00331536 0
vn -0.0253456 0.00166124 0
vn 0 0.00166124 0.0253456
vn 0 0.00331536 0.0251827
vn 0 0.006574 -0.0245345
vn 0.0251827 0.00331536 0
vn 0.0253456 0.00166124 0
vn -0.0245345 0.006574 0
vn 0 0.006574 0.0245345
vn 0 0.00972015 -0.0234666
vn 0.0245345 0.006574 0
vn -0.0234666 0.00972015 0
vn 0 0.00972015 0.0234666
vn 0 0.0127 -0.021997
vn 0.0234666 0.00972015 0
vn -0.021997 0.0127 0
vn 0 0.0127 0.021997
vn 0 0.0154625 -0.0201512
vn 0.021997 0.0127 0
vn -0.0201512 0.0154625 0
vn 0 0.0154625 0.0201512
vn 0 0.0179605 -0.0179605
vn 0.0201512 0.0154625 0
vn -0.0179605 0.0179605 0
vn 0 0.0179605 0.0179605
vn 0 0.0201512 -0.0154625
vn 0.0179605 0.0179605 0
vn -0.0154625 0.0201512 0
vn 0 0.0201512 0.0154625
vn 0 0.021997 -0.0127
vn 0.0154625 0.0201512 0
vn -0.0127 0.021997 0
vn 0 0.021997 0.0127
vn 0 0.0234666 -0.00972015
vn 0.0127 0.021997 0
vn -0.00972015 0.0234666 0
vn 0 0.0234666 0.00972015
vn 0 0.0245345 -0.006574
vn 0.00972015 0.0234666 0
vn -0.006574 0.0245345 0
vn 0 0.0245345 0.006574
vn 0 0.0251827 -0.00331536
vn 0.006574 0.0245345 0
vn -0.00331536 0.0251827 0
vn 0 0.0251827 0.00331536
vn 0 0.0253456 -0.00166124
vn 0.00331536 0.0251827 0
vn -0.00166124 0.0253456 0
vn 0 0.0253456 0.00166124
vn 0 0.0254 0
vn 0.00166124 0.0253456 0
vn 0 -0.00166124 0.0253456
vn 0 -0.00331536 0.0251827
vn 0.0253456 -0.00166124 0
vn 0.0251827 -0.00331536 0
vn 0 -0.00166124 -0.0253456
vn 0 -0.00331536 -0.0251827
vn 0 -0.006574 0.0245345
vn -0.0253456 -0.00166124 0
vn -0.0251827 -0.00331536 0
vn 0.0245345 -0.006574 0
vn 0 -0.006574 -0.0245345
vn 0 -0.00972015 0.0234666
vn -0.0245345 -0.006574 0
vn 0.0234666 -0.00972015 0
vn 0 -0.00972015 -0.0234666
vn 0 -0.0127 0.021997
vn -0.0234666 -0.00972015 -0
vn 0.021997 -0.0127 0
vn 0 -0.0127 -0.021997
vn 0 -0.0154625 0.0201512
vn -0.021997 -0.0127 0
vn 0.0201512 -0.0154625 0
vn 0 -0.0154625 -0.0201512
vn 0 -0.0179605 0.0179605
vn -0.0201512 -0.0154625 0
vn 0.0179605 -0.0179605 0
vn 0 -0.0179605 -0.0179605
vn 0 -0.0201512 0.0154625
vn -0.0179605 -0.0179605 -0
vn 0.0154625 -0.0201512 0
vn 0 -0.0201512 -0.0154625
vn 0 -0.021997 0.0127
vn -0.0154625 -0.0201512 0
vn 0.0127 -0.021997 0
vn 0 -0.021997 -0.0127
vn 0 -0.0234666 0.00972015
vn -0.0127 -0.021997 0
vn 0.00972015 -0.0234666 0
vn 0 -0.0234666 -0.00972015
vn 0 -0.0245345 0.006574
vn -0.00972015 -0.0234666 -0
vn 0.006574 -0.0245345 0
vn 0 -0.0245345 -0.006574
vn 0 -0.0251827 0.00331536
vn -0.006574 -0.0245345 -0
vn 0.00331536 -0.0251827 0
vn 0 -0.0251827 -0.00331536
vn 0 -0.0253456 0.00166124
vn -0.00331536 -0.0251827 0
vn 0.00166124 -0.0253456 0
vn 0 -0.0253456 -0.00166124
vn -0.00166124 -0.0253456 0

# Mesh 'mesh1_mesh1-geometry' with 180 faces
g mesh1_mesh1-geometry
usemtl material_0_1_8
f  1/1/1 2/2/1 3/3/1
f  2/2/1 1/1/1 4/4/1
f  3/5/2 2/6/2 5/7/2
f  5/8/3 1/9/3 3/10/3
f  1/11/4 6/12/4 4/13/4
f  6/14/5 2/15/5 4/16/5
f  7/17/2 5/7/2 2/6/2
f  1/9/3 5/8/3 8/18/3
f  6/12/4 1/11/4 8/19/4
f  2/15/5 6/14/5 7/20/5
f  5/7/2 7/17/2 9/21/2
f  5/3/1 10/22/1 8/1/1
f  8/1/1 11/23/1 6/4/1
f  7/20/5 6/14/5 12/24/5
f  13/25/6 9/26/7 7/27/7
f  5/7/2 9/21/2 14/28/2
f  10/22/1 5/3/1 14/29/1
f  10/22/1 11/23/1 8/1/1
f  6/4/1 11/23/1 15/30/1
f  16/31/5 12/24/5 6/14/5
f  17/32/8 7/33/9 12/34/9
f  9/26/7 13/25/6 18/35/6
f  7/33/9 17/32/8 13/36/8
f  14/28/2 9/21/2 19/37/2
f  19/15/5 10/14/5 14/38/5
f  11/23/1 10/22/1 20/39/1
f  15/30/1 11/23/1 21/40/1
f  16/41/1 6/4/1 15/30/1
f  22/42/5 12/24/5 16/31/5
f  23/43/10 17/44/11 12/45/10
f  24/46/12 18/47/6 13/48/6
f  18/49/13 25/50/14 9/51/14
f  26/52/15 13/53/8 17/54/8
f  19/37/2 9/21/2 27/55/2
f  10/14/5 19/15/5 28/16/5
f  10/56/4 29/57/4 20/58/4
f  20/18/3 9/59/3 11/60/3
f  11/61/2 30/37/2 21/28/2
f  15/30/1 21/40/1 31/62/1
f  15/7/2 22/6/2 16/63/2
f  12/24/5 22/42/5 32/64/5
f  17/44/11 23/43/10 33/65/11
f  12/66/4 31/19/4 23/67/4
f  18/47/6 24/46/12 34/68/12
f  13/53/8 26/52/15 24/69/15
f  25/50/14 18/49/13 23/70/14
f  23/71/3 9/59/3 25/72/3
f  33/73/11 26/74/16 17/75/11
f  9/59/3 29/9/3 27/10/3
f  29/39/1 19/29/1 27/76/1
f  19/29/1 29/39/1 28/22/1
f  29/57/4 10/56/4 28/77/4
f  29/9/3 9/59/3 20/18/3
f  23/71/3 11/60/3 9/59/3
f  30/37/2 11/61/2 35/55/2
f  30/42/5 36/78/5 21/31/5
f  31/62/1 21/40/1 36/79/1
f  37/80/3 15/60/3 31/81/3
f  22/6/2 15/7/2 38/5/2
f  22/41/1 37/62/1 32/82/1
f  37/11/4 12/66/4 32/13/4
f  23/70/14 18/49/13 33/83/13
f  12/66/4 37/11/4 31/19/4
f  23/67/4 31/19/4 36/56/4
f  39/84/17 34/85/12 24/86/12
f  34/87/18 40/88/13 18/89/13
f  41/90/19 24/91/15 26/92/15
f  26/74/16 33/73/11 42/93/16
f  43/80/3 11/60/3 23/71/3
f  11/60/3 43/80/3 35/94/3
f  43/95/1 30/40/1 35/23/1
f  36/78/5 30/42/5 44/64/5
f  15/60/3 37/80/3 38/94/3
f  37/62/1 22/41/1 38/30/1
f  33/83/13 18/49/13 40/96/13
f  23/67/4 36/56/4 43/57/4
f  34/85/12 39/84/17 45/97/17
f  24/91/15 41/90/19 39/98/19
f  40/88/13 34/87/18 33/99/13
f  42/100/16 41/101/20 26/102/16
f  33/99/13 34/87/18 42/103/18
f  30/40/1 43/95/1 44/79/1
f  43/57/4 36/56/4 44/77/4
f  46/104/21 45/105/17 39/106/17
f  45/107/22 47/108/18 34/109/18
f  48/110/23 39/111/19 41/112/19
f  41/101/20 42/100/16 49/113/20
f  42/103/18 34/87/18 47/114/18
f  45/105/17 46/104/21 50/115/21
f  39/111/19 48/110/23 46/116/23
f  47/108/18 45/107/22 42/117/18
f  49/118/20 48/119/24 41/120/20
f  42/117/18 45/107/22 49/121/22
f  51/122/25 50/123/21 46/124/21
f  50/125/26 52/126/22 45/127/22
f  53/128/27 46/129/23 48/130/23
f  48/119/24 49/118/20 54/131/24
f  49/121/22 45/107/22 52/132/22
f  50/123/21 51/122/25 55/133/25
f  46/129/23 53/128/27 51/134/27
f  52/126/22 50/125/26 49/135/22
f  54/136/24 53/137/28 48/138/24
f  49/135/22 50/125/26 54/139/26
f  56/140/29 55/141/25 51/142/25
f  55/143/30 57/144/26 50/145/26
f  58/146/31 51/147/27 53/148/27
f  53/137/28 54/136/24 59/149/28
f  54/139/26 50/125/26 57/150/26
f  55/141/25 56/140/29 60/151/29
f  51/147/27 58/146/31 56/152/31
f  57/144/26 55/143/30 54/153/26
f  59/154/28 58/155/32 53/156/28
f  54/153/26 55/143/30 59/157/30
f  61/158/33 60/159/29 56/160/29
f  60/161/34 62/162/30 55/163/30
f  58/164/31 61/165/35 56/166/31
f  58/155/32 59/154/28 63/167/32
f  59/157/30 55/143/30 62/168/30
f  60/159/29 61/158/33 64/169/33
f  62/162/30 60/161/34 59/170/30
f  61/165/35 58/164/31 65/171/35
f  59/170/30 60/161/34 63/172/34
f  66/173/36 58/174/32 63/175/32
f  67/176/37 64/177/33 61/178/33
f  64/179/38 68/180/34 60/181/34
f  58/174/32 66/173/36 65/182/36
f  65/183/35 67/184/39 61/185/35
f  63/172/34 60/161/34 68/186/34
f  68/180/34 66/187/38 63/188/34
f  64/177/33 67/176/37 69/189/37
f  68/180/34 64/179/38 70/190/38
f  71/191/40 65/192/36 66/193/36
f  67/184/39 65/183/35 72/194/39
f  68/180/34 70/190/38 66/187/38
f  73/195/41 69/196/37 67/197/37
f  69/198/42 70/199/38 64/200/38
f  65/192/36 71/191/40 72/201/40
f  70/199/38 71/202/42 66/203/38
f  72/204/39 73/205/43 67/206/39
f  69/196/37 73/195/41 74/207/41
f  70/199/38 69/198/42 75/208/42
f  76/209/44 72/210/40 71/211/40
f  70/199/38 75/208/42 71/202/42
f  73/205/43 72/204/39 77/212/43
f  78/213/45 74/214/41 73/215/41
f  74/216/46 75/217/42 69/218/42
f  72/210/40 76/209/44 77/219/44
f  75/217/42 76/220/46 71/221/42
f  77/222/43 78/223/47 73/224/43
f  74/214/41 78/213/45 79/225/45
f  75/217/42 74/216/46 80/226/46
f  81/227/48 77/228/44 76/229/44
f  75/217/42 80/226/46 76/220/46
f  78/223/47 77/222/43 82/230/47
f  83/231/49 79/232/45 78/233/45
f  79/234/50 80/235/46 74/236/46
f  77/228/44 81/227/48 82/237/48
f  80/235/46 81/238/50 76/239/46
f  82/240/47 83/241/51 78/242/47
f  79/232/45 83/231/49 84/243/49
f  80/235/46 79/234/50 85/244/50
f  86/245/52 82/246/48 81/247/48
f  80/235/46 85/244/50 81/238/50
f  83/241/51 82/240/47 87/248/51
f  88/249/53 84/250/49 83/251/49
f  84/252/54 85/253/50 79/254/50
f  82/246/48 86/245/52 87/255/52
f  85/253/50 86/256/54 81/257/50
f  87/258/51 88/259/55 83/260/51
f  84/250/49 88/249/53 89/261/53
f  85/253/50 84/252/54 90/262/54
f  91/263/56 87/264/52 86/265/52
f  85/253/50 90/262/54 86/256/54
f  88/259/55 87/258/51 92/266/55
f  92/267/57 89/268/57 88/269/57
f  89/270/58 90/271/54 84/272/54
f  87/264/52 91/263/56 92/273/56
f  90/271/54 91/274/58 86/275/54
f  89/268/57 92/267/57 91/276/57
f  90/271/54 89/270/58 91/274/58

# Mesh 'mesh1_mesh1-geometry' with 180 faces
g mesh1_mesh1-geometry
usemtl material_1_24
f  3//57 2//57 1//57
f  4//57 1//57 2//57
f  5//4 2//4 3//4
f  3//5 1//5 5//5
f  4//2 6//2 1//2
f  4//3 2//3 6//3
f  2//4 5//4 7//4
f  8//5 5//5 1//5
f  8//2 1//2 6//2
f  7//3 6//3 2//3
f  9//4 7//4 5//4
f  8//57 10//57 5//57
f  6//57 11//57 8//57
f  12//3 6//3 7//3
f  7//59 9//59 13//60
f  14//4 9//4 5//4
f  14//57 5//57 10//57
f  8//57 11//57 10//57
f  15//57 11//57 6//57
f  6//3 12//3 16//3
f  12//61 7//61 17//62
f  18//60 13//60 9//59
f  13//62 17//62 7//61
f  19//4 9//4 14//4
f  14//3 10//3 19//3
f  20//57 10//57 11//57
f  21//57 11//57 15//57
f  15//57 6//57 16//57
f  16//3 12//3 22//3
f  12//63 17//64 23//63
f  13//60 18//60 24//65
f  9//66 25//66 18//67
f  17//62 13//62 26//68
f  27//4 9//4 19//4
f  28//3 19//3 10//3
f  20//2 29//2 10//2
f  11//5 9//5 20//5
f  21//4 30//4 11//4
f  31//57 21//57 15//57
f  16//4 22//4 15//4
f  32//3 22//3 12//3
f  33//64 23//63 17//64
f  23//2 31//2 12//2
f  34//65 24//65 18//60
f  24//68 26//68 13//62
f  23//66 18//67 25//66
f  25//5 9//5 23//5
f  17//64 26//69 33//64
f  27//5 29//5 9//5
f  27//57 19//57 29//57
f  28//57 29//57 19//57
f  28//2 10//2 29//2
f  20//5 9//5 29//5
f  9//5 11//5 23//5
f  35//4 11//4 30//4
f  21//3 36//3 30//3
f  36//57 21//57 31//57
f  31//5 15//5 37//5
f  38//4 15//4 22//4
f  32//57 37//57 22//57
f  32//2 12//2 37//2
f  33//67 18//67 23//66
f  31//2 37//2 12//2
f  36//2 31//2 23//2
f  24//65 34//65 39//70
f  18//67 40//67 34//71
f  26//68 24//68 41//72
f  42//69 33//64 26//69
f  23//5 11//5 43//5
f  35//5 43//5 11//5
f  35//57 30//57 43//57
f  44//3 30//3 36//3
f  38//5 37//5 15//5
f  38//57 22//57 37//57
f  40//67 18//67 33//67
f  43//2 36//2 23//2
f  45//70 39//70 34//65
f  39//72 41//72 24//68
f  33//67 34//71 40//67
f  26//69 41//73 42//69
f  42//71 34//71 33//67
f  44//57 43//57 30//57
f  44//2 36//2 43//2
f  39//70 45//70 46//74
f  34//71 47//71 45//75
f  41//72 39//72 48//76
f  49//73 42//69 41//73
f  47//71 34//71 42//71
f  50//74 46//74 45//70
f  46//76 48//76 39//72
f  42//71 45//75 47//71
f  41//73 48//77 49//73
f  49//75 45//75 42//71
f  46//74 50//74 51//78
f  45//75 52//75 50//79
f  48//76 46//76 53//80
f  54//77 49//73 48//77
f  52//75 45//75 49//75
f  55//78 51//78 50//74
f  51//80 53//80 46//76
f  49//75 50//79 52//75
f  48//77 53//81 54//77
f  54//79 50//79 49//75
f  51//78 55//78 56//82
f  50//79 57//79 55//83
f  53//80 51//80 58//84
f  59//81 54//77 53//81
f  57//79 50//79 54//79
f  60//82 56//82 55//78
f  56//84 58//84 51//80
f  54//79 55//83 57//79
f  53//81 58//85 59//81
f  59//83 55//83 54//79
f  56//82 60//82 61//86
f  55//83 62//83 60//87
f  56//84 61//88 58//84
f  63//85 59//81 58//85
f  62//83 55//83 59//83
f  64//86 61//86 60//82
f  59//83 60//87 62//83
f  65//88 58//84 61//88
f  63//87 60//87 59//83
f  63//85 58//85 66//89
f  61//86 64//86 67//90
f  60//87 68//87 64//91
f  65//89 66//89 58//85
f  61//88 67//92 65//88
f  68//87 60//87 63//87
f  63//87 66//91 68//87
f  69//90 67//90 64//86
f  70//91 64//91 68//87
f  66//89 65//89 71//93
f  72//92 65//88 67//92
f  66//91 70//91 68//87
f  67//90 69//90 73//94
f  64//91 70//91 69//95
f  72//93 71//93 65//89
f  66//91 71//95 70//91
f  67//92 73//96 72//92
f  74//94 73//94 69//90
f  75//95 69//95 70//91
f  71//93 72//93 76//97
f  71//95 75//95 70//91
f  77//96 72//92 73//96
f  73//94 74//94 78//98
f  69//95 75//95 74//99
f  77//97 76//97 72//93
f  71//95 76//99 75//95
f  73//96 78//100 77//96
f  79//98 78//98 74//94
f  80//99 74//99 75//95
f  76//97 77//97 81//101
f  76//99 80//99 75//95
f  82//100 77//96 78//100
f  78//98 79//98 83//102
f  74//99 80//99 79//103
f  82//101 81//101 77//97
f  76//99 81//103 80//99
f  78//100 83//104 82//100
f  84//102 83//102 79//98
f  85//103 79//103 80//99
f  81//101 82//101 86//105
f  81//103 85//103 80//99
f  87//104 82//100 83//104
f  83//102 84//102 88//106
f  79//103 85//103 84//107
f  87//105 86//105 82//101
f  81//103 86//107 85//103
f  83//104 88//108 87//104
f  89//106 88//106 84//102
f  90//107 84//107 85//103
f  86//105 87//105 91//109
f  86//107 90//107 85//103
f  92//108 87//104 88//108
f  88//1 89//1 92//1
f  84//107 90//107 89//110
f  92//109 91//109 87//105
f  86//107 91//110 90//107
f  91//1 92//1 89//1
f  91//110 89//110 90//107

